<mxfile host="app.diagrams.net" agent="Mozilla/5.0 (Windows NT 10.0; Win64; x64) AppleWebKit/537.36 (KHTML, like Gecko) Chrome/131.0.0.0 Safari/537.36" version="26.0.8">
  <diagram name="Page-1" id="49JOPSRbIqI9UVVUoyIU">
    <mxGraphModel dx="2442" dy="857" grid="1" gridSize="10" guides="1" tooltips="1" connect="1" arrows="1" fold="1" page="1" pageScale="1" pageWidth="827" pageHeight="1169" math="0" shadow="0">
      <root>
        <mxCell id="0" />
        <mxCell id="1" parent="0" />
        <mxCell id="9eNor8dnYwOx_QTVATjY-1" value="ผู้ดูแลระบบ" style="rounded=0;whiteSpace=wrap;html=1;" vertex="1" parent="1">
          <mxGeometry x="-90" y="400" width="90" height="40" as="geometry" />
        </mxCell>
        <mxCell id="9eNor8dnYwOx_QTVATjY-2" value="2.1" style="swimlane;childLayout=stackLayout;horizontal=1;startSize=30;horizontalStack=0;rounded=1;fontSize=14;fontStyle=0;strokeWidth=2;resizeParent=0;resizeLast=1;shadow=0;dashed=0;align=center;arcSize=20;whiteSpace=wrap;html=1;swimlaneLine=1;glass=0;" vertex="1" parent="1">
          <mxGeometry x="309" y="120" width="190" height="120" as="geometry" />
        </mxCell>
        <mxCell id="9eNor8dnYwOx_QTVATjY-3" value="ตรวจสอบข้อมูลลูกค้า" style="text;html=1;align=center;verticalAlign=middle;resizable=0;points=[];autosize=1;strokeColor=none;fillColor=none;" vertex="1" parent="9eNor8dnYwOx_QTVATjY-2">
          <mxGeometry y="30" width="190" height="90" as="geometry" />
        </mxCell>
        <mxCell id="9eNor8dnYwOx_QTVATjY-4" value="2.2" style="swimlane;childLayout=stackLayout;horizontal=1;startSize=30;horizontalStack=0;rounded=1;fontSize=14;fontStyle=0;strokeWidth=2;resizeParent=0;resizeLast=1;shadow=0;dashed=0;align=center;arcSize=20;whiteSpace=wrap;html=1;swimlaneLine=1;glass=0;" vertex="1" parent="1">
          <mxGeometry x="310" y="280" width="189" height="120" as="geometry" />
        </mxCell>
        <mxCell id="9eNor8dnYwOx_QTVATjY-5" value="เพิ่มข้อมูลลูกค้า" style="text;html=1;align=center;verticalAlign=middle;resizable=0;points=[];autosize=1;strokeColor=none;fillColor=none;" vertex="1" parent="9eNor8dnYwOx_QTVATjY-4">
          <mxGeometry y="30" width="189" height="90" as="geometry" />
        </mxCell>
        <mxCell id="9eNor8dnYwOx_QTVATjY-6" value="2.3" style="swimlane;childLayout=stackLayout;horizontal=1;startSize=30;horizontalStack=0;rounded=1;fontSize=14;fontStyle=0;strokeWidth=2;resizeParent=0;resizeLast=1;shadow=0;dashed=0;align=center;arcSize=20;whiteSpace=wrap;html=1;swimlaneLine=1;glass=0;" vertex="1" parent="1">
          <mxGeometry x="310" y="440" width="189" height="120" as="geometry" />
        </mxCell>
        <mxCell id="9eNor8dnYwOx_QTVATjY-7" value="แก้ไขข้อมูลลูกค้า" style="text;html=1;align=center;verticalAlign=middle;resizable=0;points=[];autosize=1;strokeColor=none;fillColor=none;" vertex="1" parent="9eNor8dnYwOx_QTVATjY-6">
          <mxGeometry y="30" width="189" height="90" as="geometry" />
        </mxCell>
        <mxCell id="9eNor8dnYwOx_QTVATjY-8" value="2.4" style="swimlane;childLayout=stackLayout;horizontal=1;startSize=30;horizontalStack=0;rounded=1;fontSize=14;fontStyle=0;strokeWidth=2;resizeParent=0;resizeLast=1;shadow=0;dashed=0;align=center;arcSize=20;whiteSpace=wrap;html=1;swimlaneLine=1;glass=0;" vertex="1" parent="1">
          <mxGeometry x="310" y="600" width="189" height="120" as="geometry" />
        </mxCell>
        <mxCell id="9eNor8dnYwOx_QTVATjY-9" value="ลบข้อมูลลูกค้า" style="text;html=1;align=center;verticalAlign=middle;resizable=0;points=[];autosize=1;strokeColor=none;fillColor=none;" vertex="1" parent="9eNor8dnYwOx_QTVATjY-8">
          <mxGeometry y="30" width="189" height="90" as="geometry" />
        </mxCell>
        <mxCell id="9eNor8dnYwOx_QTVATjY-12" value="ลูกค้า" style="shape=partialRectangle;whiteSpace=wrap;html=1;left=0;right=0;fillColor=none;" vertex="1" parent="1">
          <mxGeometry x="780" y="160" width="120" height="40" as="geometry" />
        </mxCell>
        <mxCell id="9eNor8dnYwOx_QTVATjY-13" value="D4" style="rounded=0;whiteSpace=wrap;html=1;" vertex="1" parent="1">
          <mxGeometry x="740" y="160" width="40" height="40" as="geometry" />
        </mxCell>
        <mxCell id="9eNor8dnYwOx_QTVATjY-16" value="" style="endArrow=classic;startArrow=classic;html=1;rounded=0;exitX=0.25;exitY=0;exitDx=0;exitDy=0;entryX=-0.01;entryY=0.229;entryDx=0;entryDy=0;entryPerimeter=0;" edge="1" parent="1" source="9eNor8dnYwOx_QTVATjY-1" target="9eNor8dnYwOx_QTVATjY-3">
          <mxGeometry width="50" height="50" relative="1" as="geometry">
            <mxPoint x="350" y="390" as="sourcePoint" />
            <mxPoint x="280" y="200" as="targetPoint" />
            <Array as="points">
              <mxPoint x="-67" y="170" />
            </Array>
          </mxGeometry>
        </mxCell>
        <mxCell id="9eNor8dnYwOx_QTVATjY-17" value="" style="endArrow=classic;startArrow=classic;html=1;rounded=0;exitX=0.75;exitY=0;exitDx=0;exitDy=0;entryX=0;entryY=0.111;entryDx=0;entryDy=0;entryPerimeter=0;" edge="1" parent="1" source="9eNor8dnYwOx_QTVATjY-1" target="9eNor8dnYwOx_QTVATjY-5">
          <mxGeometry width="50" height="50" relative="1" as="geometry">
            <mxPoint x="240" y="320" as="sourcePoint" />
            <mxPoint x="290" y="270" as="targetPoint" />
            <Array as="points">
              <mxPoint x="-22" y="320" />
            </Array>
          </mxGeometry>
        </mxCell>
        <mxCell id="9eNor8dnYwOx_QTVATjY-18" value="" style="endArrow=classic;startArrow=classic;html=1;rounded=0;exitX=0.75;exitY=1;exitDx=0;exitDy=0;" edge="1" parent="1" source="9eNor8dnYwOx_QTVATjY-1">
          <mxGeometry width="50" height="50" relative="1" as="geometry">
            <mxPoint x="240" y="570" as="sourcePoint" />
            <mxPoint x="310" y="530" as="targetPoint" />
            <Array as="points">
              <mxPoint x="-22" y="530" />
            </Array>
          </mxGeometry>
        </mxCell>
        <mxCell id="9eNor8dnYwOx_QTVATjY-19" value="" style="endArrow=classic;startArrow=classic;html=1;rounded=0;exitX=0.25;exitY=1;exitDx=0;exitDy=0;entryX=0.002;entryY=0.47;entryDx=0;entryDy=0;entryPerimeter=0;" edge="1" parent="1" source="9eNor8dnYwOx_QTVATjY-1" target="9eNor8dnYwOx_QTVATjY-9">
          <mxGeometry width="50" height="50" relative="1" as="geometry">
            <mxPoint x="240" y="480" as="sourcePoint" />
            <mxPoint x="310" y="660" as="targetPoint" />
            <Array as="points">
              <mxPoint x="-67" y="675" />
            </Array>
          </mxGeometry>
        </mxCell>
        <mxCell id="9eNor8dnYwOx_QTVATjY-21" value="" style="endArrow=classic;startArrow=classic;html=1;rounded=0;entryX=0;entryY=0.5;entryDx=0;entryDy=0;" edge="1" parent="1" target="9eNor8dnYwOx_QTVATjY-13">
          <mxGeometry width="50" height="50" relative="1" as="geometry">
            <mxPoint x="500" y="180" as="sourcePoint" />
            <mxPoint x="530" y="170" as="targetPoint" />
          </mxGeometry>
        </mxCell>
        <mxCell id="9eNor8dnYwOx_QTVATjY-23" value="ข้อมูลลูกค้า" style="text;html=1;align=center;verticalAlign=middle;resizable=0;points=[];autosize=1;strokeColor=none;fillColor=none;" vertex="1" parent="1">
          <mxGeometry x="110" y="140" width="80" height="30" as="geometry" />
        </mxCell>
        <mxCell id="9eNor8dnYwOx_QTVATjY-24" value="ข้อมูลลูกค้า" style="text;html=1;align=center;verticalAlign=middle;resizable=0;points=[];autosize=1;strokeColor=none;fillColor=none;" vertex="1" parent="1">
          <mxGeometry x="115" y="645" width="80" height="30" as="geometry" />
        </mxCell>
        <mxCell id="9eNor8dnYwOx_QTVATjY-25" value="ข้อมูลลูกค้า" style="text;html=1;align=center;verticalAlign=middle;resizable=0;points=[];autosize=1;strokeColor=none;fillColor=none;" vertex="1" parent="1">
          <mxGeometry x="115" y="502.5" width="80" height="30" as="geometry" />
        </mxCell>
        <mxCell id="9eNor8dnYwOx_QTVATjY-26" value="ข้อมูลลูกค้า" style="text;html=1;align=center;verticalAlign=middle;resizable=0;points=[];autosize=1;strokeColor=none;fillColor=none;" vertex="1" parent="1">
          <mxGeometry x="115" y="292.5" width="80" height="30" as="geometry" />
        </mxCell>
        <mxCell id="9eNor8dnYwOx_QTVATjY-28" value="ข้อมูลลูกค้า" style="text;html=1;align=center;verticalAlign=middle;resizable=0;points=[];autosize=1;strokeColor=none;fillColor=none;" vertex="1" parent="1">
          <mxGeometry x="585" y="150" width="80" height="30" as="geometry" />
        </mxCell>
        <mxCell id="9eNor8dnYwOx_QTVATjY-32" value="ลูกค้า" style="shape=partialRectangle;whiteSpace=wrap;html=1;left=0;right=0;fillColor=none;" vertex="1" parent="1">
          <mxGeometry x="779" y="322.5" width="120" height="40" as="geometry" />
        </mxCell>
        <mxCell id="9eNor8dnYwOx_QTVATjY-33" value="D4" style="rounded=0;whiteSpace=wrap;html=1;" vertex="1" parent="1">
          <mxGeometry x="739" y="322.5" width="40" height="40" as="geometry" />
        </mxCell>
        <mxCell id="9eNor8dnYwOx_QTVATjY-37" value="" style="endArrow=classic;startArrow=classic;html=1;rounded=0;entryX=0;entryY=0.5;entryDx=0;entryDy=0;" edge="1" parent="1" target="9eNor8dnYwOx_QTVATjY-33">
          <mxGeometry width="50" height="50" relative="1" as="geometry">
            <mxPoint x="499" y="342.5" as="sourcePoint" />
            <mxPoint x="529" y="332.5" as="targetPoint" />
          </mxGeometry>
        </mxCell>
        <mxCell id="9eNor8dnYwOx_QTVATjY-40" value="ข้อมูลลูกค้า" style="text;html=1;align=center;verticalAlign=middle;resizable=0;points=[];autosize=1;strokeColor=none;fillColor=none;" vertex="1" parent="1">
          <mxGeometry x="584" y="312.5" width="80" height="30" as="geometry" />
        </mxCell>
        <mxCell id="9eNor8dnYwOx_QTVATjY-44" value="ลูกค้า" style="shape=partialRectangle;whiteSpace=wrap;html=1;left=0;right=0;fillColor=none;" vertex="1" parent="1">
          <mxGeometry x="780" y="482.5" width="120" height="40" as="geometry" />
        </mxCell>
        <mxCell id="9eNor8dnYwOx_QTVATjY-45" value="D4" style="rounded=0;whiteSpace=wrap;html=1;" vertex="1" parent="1">
          <mxGeometry x="740" y="482.5" width="40" height="40" as="geometry" />
        </mxCell>
        <mxCell id="9eNor8dnYwOx_QTVATjY-49" value="" style="endArrow=classic;startArrow=classic;html=1;rounded=0;entryX=0;entryY=0.5;entryDx=0;entryDy=0;" edge="1" parent="1" target="9eNor8dnYwOx_QTVATjY-45">
          <mxGeometry width="50" height="50" relative="1" as="geometry">
            <mxPoint x="500" y="502.5" as="sourcePoint" />
            <mxPoint x="530" y="492.5" as="targetPoint" />
          </mxGeometry>
        </mxCell>
        <mxCell id="9eNor8dnYwOx_QTVATjY-52" value="ข้อมูลลูกค้า" style="text;html=1;align=center;verticalAlign=middle;resizable=0;points=[];autosize=1;strokeColor=none;fillColor=none;" vertex="1" parent="1">
          <mxGeometry x="585" y="472.5" width="80" height="30" as="geometry" />
        </mxCell>
        <mxCell id="9eNor8dnYwOx_QTVATjY-56" value="ลูกค้า" style="shape=partialRectangle;whiteSpace=wrap;html=1;left=0;right=0;fillColor=none;" vertex="1" parent="1">
          <mxGeometry x="780" y="645" width="120" height="40" as="geometry" />
        </mxCell>
        <mxCell id="9eNor8dnYwOx_QTVATjY-57" value="D4" style="rounded=0;whiteSpace=wrap;html=1;" vertex="1" parent="1">
          <mxGeometry x="740" y="645" width="40" height="40" as="geometry" />
        </mxCell>
        <mxCell id="9eNor8dnYwOx_QTVATjY-61" value="" style="endArrow=classic;startArrow=classic;html=1;rounded=0;entryX=0;entryY=0.5;entryDx=0;entryDy=0;" edge="1" parent="1" target="9eNor8dnYwOx_QTVATjY-57">
          <mxGeometry width="50" height="50" relative="1" as="geometry">
            <mxPoint x="500" y="665" as="sourcePoint" />
            <mxPoint x="530" y="655" as="targetPoint" />
          </mxGeometry>
        </mxCell>
        <mxCell id="9eNor8dnYwOx_QTVATjY-64" value="ข้อมูลลูกค้า" style="text;html=1;align=center;verticalAlign=middle;resizable=0;points=[];autosize=1;strokeColor=none;fillColor=none;" vertex="1" parent="1">
          <mxGeometry x="585" y="635" width="80" height="30" as="geometry" />
        </mxCell>
        <mxCell id="9eNor8dnYwOx_QTVATjY-66" value="ลูกค้า" style="rounded=0;whiteSpace=wrap;html=1;" vertex="1" parent="1">
          <mxGeometry x="30" y="400" width="90" height="40" as="geometry" />
        </mxCell>
        <mxCell id="9eNor8dnYwOx_QTVATjY-67" value="" style="endArrow=classic;startArrow=classic;html=1;rounded=0;exitX=0.75;exitY=0;exitDx=0;exitDy=0;entryX=-0.011;entryY=0.567;entryDx=0;entryDy=0;entryPerimeter=0;" edge="1" parent="1" source="9eNor8dnYwOx_QTVATjY-66" target="9eNor8dnYwOx_QTVATjY-5">
          <mxGeometry width="50" height="50" relative="1" as="geometry">
            <mxPoint x="150" y="430" as="sourcePoint" />
            <mxPoint x="200" y="380" as="targetPoint" />
            <Array as="points">
              <mxPoint x="98" y="361" />
            </Array>
          </mxGeometry>
        </mxCell>
        <mxCell id="9eNor8dnYwOx_QTVATjY-68" value="" style="endArrow=classic;startArrow=classic;html=1;rounded=0;exitX=0.75;exitY=1;exitDx=0;exitDy=0;entryX=-0.007;entryY=0.144;entryDx=0;entryDy=0;entryPerimeter=0;" edge="1" parent="1" source="9eNor8dnYwOx_QTVATjY-66" target="9eNor8dnYwOx_QTVATjY-7">
          <mxGeometry width="50" height="50" relative="1" as="geometry">
            <mxPoint x="150" y="430" as="sourcePoint" />
            <mxPoint x="200" y="380" as="targetPoint" />
            <Array as="points">
              <mxPoint x="98" y="483" />
            </Array>
          </mxGeometry>
        </mxCell>
        <mxCell id="9eNor8dnYwOx_QTVATjY-69" value="ข้อมูลลูกค้า" style="text;html=1;align=center;verticalAlign=middle;resizable=0;points=[];autosize=1;strokeColor=none;fillColor=none;" vertex="1" parent="1">
          <mxGeometry x="160" y="332.5" width="80" height="30" as="geometry" />
        </mxCell>
        <mxCell id="9eNor8dnYwOx_QTVATjY-70" value="ข้อมูลลูกค้า" style="text;html=1;align=center;verticalAlign=middle;resizable=0;points=[];autosize=1;strokeColor=none;fillColor=none;" vertex="1" parent="1">
          <mxGeometry x="160" y="452.5" width="80" height="30" as="geometry" />
        </mxCell>
        <mxCell id="9eNor8dnYwOx_QTVATjY-71" value="" style="endArrow=classic;startArrow=classic;html=1;rounded=0;exitX=0.25;exitY=0;exitDx=0;exitDy=0;entryX=-0.009;entryY=0.589;entryDx=0;entryDy=0;entryPerimeter=0;" edge="1" parent="1" source="9eNor8dnYwOx_QTVATjY-66" target="9eNor8dnYwOx_QTVATjY-3">
          <mxGeometry width="50" height="50" relative="1" as="geometry">
            <mxPoint x="150" y="250" as="sourcePoint" />
            <mxPoint x="200" y="200" as="targetPoint" />
            <Array as="points">
              <mxPoint x="53" y="203" />
            </Array>
          </mxGeometry>
        </mxCell>
        <mxCell id="9eNor8dnYwOx_QTVATjY-73" value="ข้อมูลลูกค้า" style="text;html=1;align=center;verticalAlign=middle;resizable=0;points=[];autosize=1;strokeColor=none;fillColor=none;" vertex="1" parent="1">
          <mxGeometry x="160" y="180" width="80" height="30" as="geometry" />
        </mxCell>
      </root>
    </mxGraphModel>
  </diagram>
</mxfile>
